HIERARCHY
ROOT Pelvis
{
	OFFSET 0.000000 0.000000 0.000000
	CHANNELS 6 Xposition Yposition Zposition Xrotation Yrotation Zrotation
	JOINT LeftUpLeg_virtual
	{
		OFFSET 0.000000 0.000000 0.000000
		CHANNELS 3 Xrotation Yrotation Zrotation
		JOINT LeftUpLeg
		{
			OFFSET 8.479700 -4.795502 -0.379100
			CHANNELS 3 Xrotation Yrotation Zrotation
			JOINT LeftLeg
			{
				OFFSET 0.024144 -32.555107 0.112900
				CHANNELS 3 Xrotation Yrotation Zrotation
				JOINT LeftFoot
				{
					OFFSET -0.024144 -32.638630 -3.012600
					CHANNELS 3 Xrotation Yrotation Zrotation
					JOINT LeftToeBase
					{
						OFFSET 0.970200 -13.225400 11.864200
						CHANNELS 3 Xrotation Yrotation Zrotation
						End Site
						{
							OFFSET 0 0 0
						}
					}
				}
			}
		}
	}
	JOINT RightUpLeg_virtual
	{
		OFFSET 0.000000 0.000000 0.000000
		CHANNELS 3 Xrotation Yrotation Zrotation
		JOINT RightUpLeg
		{
			OFFSET -8.479700 -4.795502 -0.379100
			CHANNELS 3 Xrotation Yrotation Zrotation
			JOINT RightLeg
			{
				OFFSET -0.023144 -32.555092 0.112900
				CHANNELS 3 Xrotation Yrotation Zrotation
				JOINT RightFoot
				{
					OFFSET 0.023144 -32.638641 -3.012700
					CHANNELS 3 Xrotation Yrotation Zrotation
					JOINT RightToeBase
					{
						OFFSET -0.970200 -13.225400 11.864200
						CHANNELS 3 Xrotation Yrotation Zrotation
						End Site
						{
							OFFSET 0 0 0
						}
					}
				}
			}
		}
	}
	JOINT Hips_virtual
	{
		OFFSET 0.000000 0.000000 0.000000
		CHANNELS 3 Xrotation Yrotation Zrotation
		JOINT Hips
		{
			OFFSET -0.000000 -0.000000 -0.000000
			CHANNELS 3 Xrotation Yrotation Zrotation
			JOINT Spine
			{
				OFFSET 0.000000 7.722000 1.166200
				CHANNELS 3 Xrotation Yrotation Zrotation
				JOINT Spine1
				{
					OFFSET 0.000000 12.024101 0.248800
					CHANNELS 3 Xrotation Yrotation Zrotation
					JOINT Spine2
					{
						OFFSET 0.000000 11.502998 -0.491200
						CHANNELS 3 Xrotation Yrotation Zrotation
						JOINT Neck_virtual
						{
							OFFSET 0.000000 0.000000 0.000000
							CHANNELS 3 Xrotation Yrotation Zrotation
							JOINT Neck
							{
								OFFSET 0.000000 18.430702 -3.123100
								CHANNELS 3 Xrotation Yrotation Zrotation
								JOINT Head
								{
									OFFSET 0.000000 9.051102 1.034000
									CHANNELS 3 Xrotation Yrotation Zrotation
									End Site
									{
										OFFSET 0 0 0
									}
								}
							}
						}
						JOINT LeftShoulder_virtual
						{
							OFFSET 0.000000 0.000000 0.000000
							CHANNELS 3 Xrotation Yrotation Zrotation
							JOINT LeftShoulder
							{
								OFFSET 6.197800 13.665199 -4.064700
								CHANNELS 3 Xrotation Yrotation Zrotation
								JOINT LeftArm
								{
									OFFSET 7.778100 -0.187103 -1.709300
									CHANNELS 3 Xrotation Yrotation Zrotation
									JOINT LeftForeArm
									{
										OFFSET 22.049376 0.000000 0.000000
										CHANNELS 3 Xrotation Yrotation Zrotation
										JOINT LeftHand
										{
											OFFSET 23.009392 0.000000 0.000000
											CHANNELS 3 Xrotation Yrotation Zrotation
											End Site
											{
												OFFSET 0 0 0
											}
										}
									}
								}
							}
						}
						JOINT RightShoulder_virtual
						{
							OFFSET 0.000000 0.000000 0.000000
							CHANNELS 3 Xrotation Yrotation Zrotation
							JOINT RightShoulder
							{
								OFFSET -6.197800 13.665199 -4.064700
								CHANNELS 3 Xrotation Yrotation Zrotation
								JOINT RightArm
								{
									OFFSET -7.778100 -0.187103 -1.709300
									CHANNELS 3 Xrotation Yrotation Zrotation
									JOINT RightForeArm
									{
										OFFSET -22.049376 0.000000 0.000000
										CHANNELS 3 Xrotation Yrotation Zrotation
										JOINT RightHand
										{
											OFFSET -23.009392 0.000000 0.000000
											CHANNELS 3 Xrotation Yrotation Zrotation
											End Site
											{
												OFFSET 0 0 0
											}
										}
									}
								}
							}
						}
					}
				}
			}
		}
	}
}
MOTION
Frames: 4
Frame Time: 0.03333333
-0.091439 85.821426 -3.895889 0.000000 0.000000 0.000000 -90.807406 -2.094096 1.791659 -4.590810 19.490993 15.613037 3.713145 2.206229 1.566684 23.394470 29.714304 -25.684307 0.000000 0.000000 0.000000 -90.807406 -2.094096 1.791659 -5.645506 -19.396851 -17.439554 1.309561 -6.505038 -4.774662 34.939143 -29.582680 30.498789 0.000000 0.000000 0.000000 -90.807406 -2.094096 1.791659 0.000000 0.000000 0.000000 0.698470 -0.117908 -0.942850 0.841691 0.154199 -0.463161 0.000000 0.000000 0.000000 0.831251 0.158014 -0.488483 -3.902735 4.009046 -8.413906 0.000000 0.000000 0.000000 0.831251 0.158014 -0.488483 0.834126 -6.730776 -3.480307 44.076597 -39.845852 -34.620904 0.000001 -83.340500 0.000000 0.000000 0.000000 0.000000 0.831251 0.158014 -0.488483 0.483607 4.500680 3.202686 -4.326320 2.268508 83.611528 -179.999978 50.428035 179.999964 0.000000 0.000000 0.000000 
-0.091406 85.821487 -3.895256 0.000000 0.000000 0.000000 -90.808123 -2.093799 1.792816 -4.590868 19.490981 15.612581 3.716816 2.192015 1.566702 23.395071 29.714202 -25.683847 0.000000 0.000000 0.000000 -90.808123 -2.093799 1.792816 -5.645793 -19.396798 -17.439379 1.309756 -6.498359 -4.774672 34.939085 -29.582669 30.498690 0.000000 0.000000 0.000000 -90.808123 -2.093799 1.792816 0.000000 0.000000 0.000000 0.698504 -0.117913 -0.942788 0.841706 0.154199 -0.463160 0.000000 0.000000 0.000000 0.831222 0.158014 -0.488483 -3.911635 4.013355 -8.413905 0.000000 0.000000 0.000000 0.831222 0.158014 -0.488483 0.834534 -6.714837 -3.485308 44.088960 -39.859471 -34.587692 0.000009 -83.340500 0.000006 0.000000 0.000000 0.000000 0.831222 0.158014 -0.488483 0.484306 4.488120 3.202632 -4.331825 2.278536 83.612451 -179.999937 50.433406 179.999937 0.000000 0.000000 0.000000 
-0.091112 85.821770 -3.894651 0.000000 0.000000 0.000000 -90.809134 -2.093420 1.793872 -4.590617 19.491043 15.612141 3.722098 2.179902 1.566724 23.392411 29.713310 -25.683441 0.000000 0.000000 0.000000 -90.809134 -2.093420 1.793872 -5.646342 -19.402127 -17.439186 1.310269 -6.485624 -4.774280 34.938822 -29.582806 30.498502 0.000000 0.000000 0.000000 -90.809134 -2.093420 1.793872 0.000000 0.000000 0.000000 0.698456 -0.117918 -0.942700 0.841681 0.154199 -0.463160 0.000000 0.000000 0.000000 0.831241 0.158014 -0.488483 -3.937779 4.024674 -8.413907 0.000000 0.000000 0.000000 0.831241 0.158014 -0.488483 0.834871 -6.690142 -3.495207 44.105861 -39.875047 -34.542903 0.000113 -83.340561 0.000096 0.000000 0.000000 0.000000 0.831241 0.158014 -0.488483 0.485156 4.473280 3.202567 -4.337898 2.290725 83.617635 179.999978 50.440059 -179.999978 0.000000 0.000000 0.000000 
-0.090555 85.822227 -3.894012 0.000000 0.000000 0.000000 -90.810404 -2.092867 1.794785 -4.594344 19.496865 15.611965 3.730047 2.180425 1.566748 23.383238 29.711818 -25.683393 0.000000 0.000000 0.000000 -90.810404 -2.092867 1.794785 -5.647331 -19.411510 -17.439595 1.312159 -6.482465 -4.773665 34.938057 -29.582970 30.498775 0.000000 0.000000 0.000000 -90.810404 -2.092867 1.794785 0.000000 0.000000 0.000000 0.698479 -0.117926 -0.942567 0.841692 0.154198 -0.463160 0.000000 0.000000 0.000000 0.831240 0.158014 -0.488483 -3.979796 4.042041 -8.413905 0.000000 0.000000 0.000000 0.831240 0.158014 -0.488483 0.835173 -6.657531 -3.509656 44.126891 -39.892423 -34.487558 0.000052 -83.340500 0.000046 0.000000 0.000000 0.000000 0.831240 0.158014 -0.488483 0.486094 4.456129 3.202493 -4.344460 2.305358 83.623078 179.999991 50.447893 179.999991 0.000000 0.000000 0.000000 
